<svg xmlns="http://www.w3.org/2000/svg" width="361" height="359" viewBox="0 0 361 359" version="1.1"><path d="" stroke="none" fill="#000000" fill-rule="evenodd"/><path d="M 168.269 0.693 C 169.242 0.947, 170.592 0.930, 171.269 0.656 C 171.946 0.382, 171.150 0.175, 169.500 0.195 C 167.850 0.215, 167.296 0.439, 168.269 0.693 M 190.750 0.662 C 191.438 0.940, 192.563 0.940, 193.250 0.662 C 193.938 0.385, 193.375 0.158, 192 0.158 C 190.625 0.158, 190.063 0.385, 190.750 0.662 M 158.750 18.662 C 159.438 18.940, 160.563 18.940, 161.250 18.662 C 161.938 18.385, 161.375 18.158, 160 18.158 C 158.625 18.158, 158.063 18.385, 158.750 18.662 M 200.750 18.662 C 201.438 18.940, 202.563 18.940, 203.250 18.662 C 203.938 18.385, 203.375 18.158, 202 18.158 C 200.625 18.158, 200.063 18.385, 200.750 18.662 M 306 51.313 C 306 51.485, 307.462 52.948, 309.250 54.563 L 312.500 57.500 309.563 54.250 C 306.825 51.221, 306 50.540, 306 51.313 M 212.762 61.707 C 214.006 61.946, 215.806 61.937, 216.762 61.687 C 217.718 61.437, 216.700 61.241, 214.500 61.252 C 212.300 61.263, 211.518 61.468, 212.762 61.707 M 110.543 93.931 C 110.226 94.443, 110.425 95.144, 110.984 95.490 C 111.543 95.835, 112 95.416, 112 94.559 C 112 92.802, 111.400 92.544, 110.543 93.931 M 226.405 95.250 L 224.500 97.500 226.750 95.595 C 227.988 94.547, 229 93.535, 229 93.345 C 229 92.545, 228.195 93.136, 226.405 95.250 M 247.710 96.799 C 248.474 97.285, 249.042 101.052, 249.252 107.034 L 249.585 116.500 249.792 106.250 C 249.978 97.071, 249.817 96.002, 248.250 96.015 C 247.050 96.026, 246.880 96.272, 247.710 96.799 M 212.750 100.662 C 213.438 100.940, 214.563 100.940, 215.250 100.662 C 215.938 100.385, 215.375 100.158, 214 100.158 C 212.625 100.158, 212.063 100.385, 212.750 100.662 M 261.355 114.500 C 261.352 119.450, 261.521 121.601, 261.731 119.280 C 261.940 116.959, 261.943 112.909, 261.736 110.280 C 261.530 107.651, 261.358 109.550, 261.355 114.500 M 221.750 114.662 C 222.438 114.940, 223.563 114.940, 224.250 114.662 C 224.938 114.385, 224.375 114.158, 223 114.158 C 221.625 114.158, 221.063 114.385, 221.750 114.662 M 136.750 126.662 C 137.438 126.940, 138.563 126.940, 139.250 126.662 C 139.938 126.385, 139.375 126.158, 138 126.158 C 136.625 126.158, 136.063 126.385, 136.750 126.662 M 263 160.075 C 261.075 161.218, 256.939 165.606, 253.810 169.827 C 250.680 174.047, 247.219 178.625, 246.118 180 C 245.017 181.375, 238.190 189.925, 230.946 199 C 223.703 208.075, 217.476 215.828, 217.110 216.228 C 216.743 216.629, 214.431 215.093, 211.972 212.816 C 209.512 210.538, 205.164 206.498, 202.310 203.837 C 197.839 199.670, 196.547 199, 192.983 199 C 187.162 199, 183 203.162, 183 208.981 C 183 213.702, 184.136 215.055, 201.857 231.430 C 211.515 240.354, 212.493 240.998, 216.357 240.968 C 218.636 240.951, 221.185 240.388, 222.022 239.718 C 223.281 238.710, 231.738 228.835, 236.339 223 C 238.773 219.914, 258.838 195.209, 265.049 187.652 C 276.366 173.883, 277.234 172.408, 276.706 167.844 C 275.820 160.171, 269.178 156.407, 263 160.075 M 342.252 167.500 C 342.263 169.700, 342.468 170.482, 342.707 169.238 C 342.946 167.994, 342.937 166.194, 342.687 165.238 C 342.437 164.282, 342.241 165.300, 342.252 167.500 M 241.272 170 C 241.272 172.475, 241.467 173.488, 241.706 172.250 C 241.944 171.012, 241.944 168.988, 241.706 167.750 C 241.467 166.512, 241.272 167.525, 241.272 170 M 17.385 180 C 17.385 186.875, 17.545 189.688, 17.740 186.250 C 17.936 182.813, 17.936 177.188, 17.740 173.750 C 17.545 170.313, 17.385 173.125, 17.385 180 M 158.250 180.747 C 165.263 180.919, 176.738 180.919, 183.750 180.747 C 190.763 180.575, 185.025 180.435, 171 180.435 C 156.975 180.435, 151.238 180.575, 158.250 180.747 M 342.252 190.500 C 342.263 192.700, 342.468 193.482, 342.707 192.238 C 342.946 190.994, 342.937 189.194, 342.687 188.238 C 342.437 187.282, 342.241 188.300, 342.252 190.500 M 141.232 199 C 141.232 200.925, 141.438 201.713, 141.689 200.750 C 141.941 199.787, 141.941 198.213, 141.689 197.250 C 141.438 196.287, 141.232 197.075, 141.232 199 M 155.750 205.706 C 156.988 205.944, 159.012 205.944, 160.250 205.706 C 161.488 205.467, 160.475 205.272, 158 205.272 C 155.525 205.272, 154.512 205.467, 155.750 205.706 M 166.750 205.662 C 167.438 205.940, 168.563 205.940, 169.250 205.662 C 169.938 205.385, 169.375 205.158, 168 205.158 C 166.625 205.158, 166.063 205.385, 166.750 205.662 M 241.310 236.500 C 241.315 239.800, 241.502 241.029, 241.725 239.232 C 241.947 237.435, 241.943 234.735, 241.715 233.232 C 241.486 231.729, 241.304 233.200, 241.310 236.500 M 302.195 253.500 C 302.215 255.150, 302.439 255.704, 302.693 254.731 C 302.947 253.758, 302.930 252.408, 302.656 251.731 C 302.382 251.054, 302.175 251.850, 302.195 253.500 M 141.768 258.725 C 143.565 258.947, 146.265 258.943, 147.768 258.715 C 149.271 258.486, 147.800 258.304, 144.500 258.310 C 141.200 258.315, 139.971 258.502, 141.768 258.725 M 153.250 258.689 C 154.213 258.941, 155.787 258.941, 156.750 258.689 C 157.713 258.438, 156.925 258.232, 155 258.232 C 153.075 258.232, 152.287 258.438, 153.250 258.689 M 163.280 258.736 C 165.909 258.943, 169.959 258.940, 172.280 258.731 C 174.601 258.521, 172.450 258.352, 167.500 258.355 C 162.550 258.358, 160.651 258.530, 163.280 258.736 M 186.269 258.693 C 187.242 258.947, 188.592 258.930, 189.269 258.656 C 189.946 258.382, 189.150 258.175, 187.500 258.195 C 185.850 258.215, 185.296 258.439, 186.269 258.693 M 194.762 258.707 C 196.006 258.946, 197.806 258.937, 198.762 258.687 C 199.718 258.437, 198.700 258.241, 196.500 258.252 C 194.300 258.263, 193.518 258.468, 194.762 258.707 M 209.264 258.718 C 210.784 258.947, 213.034 258.941, 214.264 258.704 C 215.494 258.467, 214.250 258.279, 211.500 258.286 C 208.750 258.294, 207.744 258.488, 209.264 258.718 M 222.750 258.662 C 223.438 258.940, 224.563 258.940, 225.250 258.662 C 225.938 258.385, 225.375 258.158, 224 258.158 C 222.625 258.158, 222.063 258.385, 222.750 258.662 M 285.384 261.726 C 287.046 263.692, 289 263.988, 289 262.274 C 289 261.940, 288.699 261.968, 288.331 262.336 C 287.963 262.703, 286.726 262.216, 285.581 261.252 C 283.505 259.505, 283.505 259.506, 285.384 261.726 M 143.654 285 C 144.289 285.825, 145.015 287.625, 145.268 289 L 145.728 291.500 145.864 288.872 C 145.939 287.424, 145.215 285.629, 144.250 284.872 C 142.727 283.678, 142.650 283.695, 143.654 285 M 185.232 287 C 185.232 288.925, 185.438 289.712, 185.689 288.750 C 185.941 287.788, 185.941 286.212, 185.689 285.250 C 185.438 284.288, 185.232 285.075, 185.232 287 M 163.158 313 C 163.158 314.375, 163.385 314.938, 163.662 314.250 C 163.940 313.563, 163.940 312.438, 163.662 311.750 C 163.385 311.063, 163.158 311.625, 163.158 313 M 163.750 341.662 C 164.438 341.940, 165.563 341.940, 166.250 341.662 C 166.938 341.385, 166.375 341.158, 165 341.158 C 163.625 341.158, 163.063 341.385, 163.750 341.662" stroke="none" fill="#07b986" fill-rule="evenodd"/><path d="M 160.972 1.481 C 145.777 3.136, 127.903 7.496, 114.351 12.855 C 78.809 26.909, 49.202 51.329, 27.486 84.500 C 18.794 97.778, 7.979 123.387, 4.899 137.988 C 0.224 160.148, -0.549 189.478, 3.015 209.500 C 4.190 216.100, 5.272 221.950, 5.419 222.500 C 5.567 223.050, 6.027 224.850, 6.443 226.500 C 7.665 231.350, 11.016 241.357, 12.047 243.236 C 12.571 244.191, 13.004 245.541, 13.009 246.236 C 13.025 248.581, 24.527 270.435, 30.253 279 C 38.008 290.600, 39.924 292.892, 52 305.021 C 66.732 319.817, 71.625 323.699, 88.067 333.631 C 94.429 337.475, 102.304 341.671, 105.567 342.956 C 108.830 344.241, 112.850 345.872, 114.500 346.579 C 121.838 349.725, 140.151 354.735, 153 357.112 C 164.348 359.212, 199.991 358.881, 211 356.575 C 227.506 353.116, 232.954 351.674, 241.500 348.504 C 280.131 334.173, 311.027 308.855, 333.640 273 C 342.872 258.362, 352.814 233.079, 356.644 214.500 C 358.179 207.058, 358.500 200.912, 358.500 179 C 358.500 152.660, 357.701 144.492, 353.953 132.500 C 350.801 122.415, 349.968 119.960, 348.016 115 C 337.953 89.439, 326.459 72.247, 305.564 51.500 C 290.294 36.338, 279.025 28.400, 258.955 18.670 C 243.358 11.109, 233.926 7.804, 218.546 4.514 C 197.830 0.082, 181.654 -0.770, 160.972 1.481 M 166.500 17.577 C 154.826 18.702, 147.453 20.159, 134 23.999 C 115.401 29.306, 97.204 38.470, 80.500 50.941 C 67.020 61.005, 47.515 82.694, 40.428 95.500 C 31.841 111.015, 27.262 121.668, 23.235 135.500 C 20.380 145.305, 20.115 146.661, 18.475 159.807 C 13.405 200.448, 23.273 239.381, 47.546 274.500 C 51.841 280.714, 72.647 302.538, 78.846 307.331 C 101.078 324.520, 128.974 336.419, 157 340.666 C 160.025 341.125, 171.725 341.458, 183 341.406 C 199.900 341.328, 205.194 340.941, 213.144 339.200 C 245.947 332.019, 273.214 316.970, 296.843 293.004 C 326.320 263.109, 343 221.990, 343 179.221 C 343 135.435, 325.207 93.436, 293.603 62.624 C 283.674 52.944, 272.890 44.893, 260.750 38.099 C 258.688 36.944, 255.537 35.175, 253.750 34.166 C 244.389 28.884, 222.797 21.870, 207.188 19.040 C 200.697 17.863, 173.624 16.890, 166.500 17.577 M 156.684 50.123 C 147.776 51.872, 141.865 57.434, 139.288 66.492 C 136.125 77.611, 141.542 90.845, 151.153 95.481 C 161.610 100.526, 174.836 97.815, 181.257 89.311 C 188.706 79.446, 187.021 62.244, 177.850 54.527 C 172.327 49.880, 165.333 48.425, 156.684 50.123 M 204.419 52.897 C 198.347 55.655, 193.331 61.349, 191.538 67.519 C 189.592 74.210, 189.605 77.297, 191.602 84.068 C 194.501 93.892, 203.246 100, 214.416 100 C 219.915 100, 223.315 98.418, 227.668 93.835 C 232.419 88.833, 232.298 87.117, 227 84.378 L 222.500 82.051 220.736 84.276 C 219.766 85.499, 218.305 87.377, 217.490 88.448 C 215.027 91.687, 209.264 90.903, 205.723 86.847 C 202.978 83.704, 202.828 83.081, 203.171 76.283 C 203.517 69.430, 203.738 68.853, 207.471 65.030 C 211.687 60.712, 214.556 60.035, 219.249 62.250 C 222.023 63.559, 223.267 65.854, 223.413 69.931 C 223.487 71.986, 224.268 72.558, 228.470 73.633 C 234.240 75.110, 234.961 74.573, 234.985 68.784 C 235.038 55.775, 217.805 46.818, 204.419 52.897 M 157.354 60.644 C 148.203 62.638, 148.747 81.788, 158.096 86.785 C 160.926 88.297, 166.247 87.724, 169.564 85.550 C 174.878 82.068, 175.233 69.531, 170.179 63.875 C 167.466 60.838, 162.363 59.553, 157.354 60.644 M 111.500 63.860 C 108.750 65.397, 106.515 67.070, 106.534 67.577 C 106.619 69.898, 110.411 89.427, 111.636 93.854 C 112.224 95.976, 111.690 95.780, 106.208 91.854 C 102.864 89.459, 98.186 86.279, 95.814 84.786 C 93.441 83.293, 90.566 81.378, 89.424 80.529 C 87.488 79.091, 86.964 79.242, 81.696 82.743 C 77.160 85.759, 76.167 86.891, 76.664 88.484 C 77.215 90.250, 98.003 122.136, 100.086 124.410 C 100.833 125.225, 109 120.723, 109 119.496 C 109 119.234, 106.122 114.628, 102.604 109.260 C 99.086 103.892, 96.374 99.325, 96.577 99.110 C 96.780 98.896, 97.971 99.471, 99.223 100.389 C 107.388 106.371, 116.530 112, 118.081 112 C 121.137 112, 125 109.777, 125 108.019 C 125 107.106, 124.100 102.147, 123 97 C 121.900 91.853, 121 86.790, 121 85.749 C 121 84.067, 121.167 84.024, 122.500 85.357 C 123.325 86.182, 124 87.146, 124 87.498 C 124 87.851, 125.350 90.102, 127 92.500 C 128.650 94.898, 130.002 97.229, 130.005 97.680 C 130.008 98.131, 131.065 99.819, 132.355 101.431 L 134.700 104.361 139.332 102.184 L 143.964 100.007 141.441 95.487 C 140.053 93.001, 137.923 89.418, 136.709 87.525 C 123.164 66.418, 119.348 61.005, 118.030 61.033 C 117.188 61.051, 114.250 62.323, 111.500 63.860 M 249.717 66.258 C 248.373 68.591, 242.936 77.667, 237.636 86.426 C 232.336 95.185, 228.019 102.610, 228.042 102.926 C 228.107 103.809, 234.980 108, 236.363 108 C 237.036 108, 238.917 105.776, 240.543 103.058 C 243.195 98.626, 246.359 96, 249.047 96 C 249.593 96, 250 100.703, 250 107.022 L 250 118.044 254.696 121.022 C 257.278 122.660, 259.866 124.001, 260.446 124.002 C 261.150 124.003, 261.400 119.233, 261.200 109.643 L 260.900 95.284 264.200 93.904 C 266.015 93.144, 267.725 92.500, 268 92.471 C 268.275 92.443, 272.178 91.175, 276.673 89.653 L 284.846 86.887 280.734 82.444 C 278.472 80, 276.013 78, 275.269 78 C 274.525 78, 269.358 79.587, 263.787 81.526 C 258.215 83.465, 253.338 84.928, 252.948 84.776 C 252.558 84.624, 254.434 81.125, 257.117 77 C 259.801 72.875, 261.853 69.069, 261.679 68.543 C 261.505 68.017, 260.043 66.795, 258.431 65.827 C 256.819 64.860, 254.749 63.606, 253.831 63.042 C 252.456 62.197, 251.731 62.764, 249.717 66.258 M 134.500 114.645 C 127.266 116.421, 121.826 121.364, 120.044 127.781 C 118.619 132.912, 118.639 241.160, 120.066 246.299 C 121.204 250.396, 125.970 255.625, 130 257.199 C 132.941 258.347, 224.841 258.703, 229.738 257.586 C 234.202 256.566, 239.743 249.908, 240.529 244.619 C 240.866 242.353, 240.997 238.315, 240.820 235.645 L 240.500 230.790 235.009 237.570 C 231.989 241.299, 227.540 245.604, 225.123 247.137 C 221.394 249.502, 220.028 249.836, 216.114 249.343 C 213.576 249.023, 210.503 248.140, 209.285 247.380 C 207.508 246.272, 199.890 246, 170.690 246 C 136.945 246, 134.192 245.870, 132.683 244.202 C 131.225 242.592, 131.046 236.747, 130.955 187.952 C 130.890 152.933, 131.220 132.540, 131.879 130.811 C 132.443 129.332, 133.796 127.644, 134.886 127.061 C 136.197 126.359, 151.734 126, 180.760 126 L 224.651 126 226.910 128.404 C 229.148 130.787, 229.167 131.053, 229.049 158.404 C 228.931 185.640, 229.329 188.990, 232.077 183.856 C 232.708 182.676, 235.085 179.694, 237.358 177.228 L 241.490 172.744 241.495 151.622 C 241.500 128.851, 240.855 124.946, 236.342 120.433 C 230.111 114.202, 232.878 114.516, 182.545 114.327 C 157.220 114.232, 135.600 114.375, 134.500 114.645 M 144.750 145.080 C 142.629 146.315, 142.451 150.867, 144.418 153.559 C 145.765 155.402, 147.505 155.515, 178.880 155.789 C 210.997 156.069, 211.980 156.020, 213.961 154.039 C 216.650 151.350, 216.567 147.510, 213.777 145.557 C 211.874 144.224, 206.883 144.004, 179.027 144.030 C 158.801 144.049, 145.838 144.446, 144.750 145.080 M 145.828 169.136 C 142.279 170.436, 140.617 175.009, 142.643 177.901 C 144.073 179.943, 144.831 180, 170.557 180 C 195.667 180, 197.101 179.899, 199 178 C 202.080 174.920, 201.106 171.715, 196.316 169.163 C 193.595 167.714, 149.775 167.691, 145.828 169.136 M 143.750 194.080 C 141.208 195.561, 141.338 202.576, 143.934 203.965 C 144.998 204.534, 151.941 205, 159.363 205 C 174.215 205, 176 204.365, 176 199.084 C 176 193.783, 173.781 192.997, 158.921 193.030 C 151.540 193.047, 144.713 193.519, 143.750 194.080 M 85.209 232.284 C 83.444 234.105, 82 235.883, 82 236.235 C 82 236.586, 83.688 238.495, 85.750 240.476 L 89.500 244.078 86.896 246.289 C 85.464 247.505, 80.514 251.701, 75.896 255.614 C 63.136 266.426, 63.497 265.790, 67.606 270.271 L 71.065 274.041 83.615 262.898 L 96.165 251.755 99.885 255.388 L 103.606 259.021 106.303 256.206 C 109.674 252.687, 109.668 251.755, 106.250 247.802 C 100.772 241.466, 89.687 229.494, 89.060 229.236 C 88.707 229.091, 86.974 230.463, 85.209 232.284 M 269.261 231.988 C 267.582 233.008, 263.487 237.419, 260.161 241.789 L 254.113 249.734 256.806 252.254 C 260.124 255.359, 278.509 269.354, 284.956 273.682 L 289.696 276.864 294.744 269.182 C 301.559 258.810, 302 257.809, 302 252.701 C 302 245.212, 295.271 239.164, 288.379 240.457 C 285.316 241.031, 285 240.870, 285 238.732 C 285 237.435, 283.748 235.175, 282.218 233.709 C 278.592 230.235, 273.299 229.532, 269.261 231.988 M 270.500 242.273 C 266.514 247.269, 266.536 246.830, 270.122 249.990 C 271.980 251.627, 273.909 252.837, 274.410 252.680 C 274.910 252.522, 276.141 250.862, 277.145 248.990 C 278.712 246.068, 278.779 245.298, 277.622 243.544 C 276.060 241.177, 271.958 240.445, 270.500 242.273 M 283.944 253.223 C 282.325 254.995, 281 256.707, 281 257.027 C 281 257.346, 282.520 259.081, 284.377 260.881 L 287.754 264.154 290.044 260.939 C 293.716 255.782, 292.748 250.069, 288.194 250.015 C 287.475 250.007, 285.563 251.450, 283.944 253.223 M 249.369 255.809 L 246.238 259.582 248.869 262.676 C 250.316 264.377, 253.525 268.119, 256 270.991 C 264.952 281.378, 265.866 286.457, 259.203 288.779 C 254.551 290.401, 252.103 288.414, 245.276 277.474 C 241.853 271.988, 238.478 267.397, 237.776 267.271 C 237.074 267.146, 235.169 268.137, 233.542 269.474 C 230.596 271.897, 230.591 271.919, 232.269 275.203 C 238.228 286.866, 245.067 296.461, 249.232 299 C 255.663 302.921, 264.557 300.685, 270.795 293.580 C 274.454 289.413, 275.633 284.449, 274.081 279.747 C 272.996 276.457, 254.191 251.939, 252.815 252.018 C 252.642 252.028, 251.091 253.734, 249.369 255.809 M 110.216 257.250 C 104.321 264.409, 87.097 290.532, 88.060 290.853 C 88.733 291.078, 90.907 292.701, 92.892 294.460 C 94.876 296.219, 98.686 299.141, 101.358 300.952 L 106.217 304.245 109.150 301.312 C 112.621 297.841, 112.261 296.332, 107.212 293.189 C 99.359 288.300, 99.498 288.514, 101.958 285.059 C 103.156 283.377, 104.552 282, 105.059 282 C 105.567 282, 108.085 283.605, 110.655 285.567 L 115.328 289.133 118.411 286.051 L 121.493 282.968 118.497 280.467 C 116.848 279.092, 114.255 277.283, 112.733 276.449 C 110.297 275.113, 110.104 274.666, 111.116 272.716 C 113.624 267.881, 113.903 267.859, 120.043 272.029 C 123.259 274.213, 126.252 275.994, 126.695 275.988 C 127.464 275.976, 132 269.585, 132 268.514 C 132 268.231, 131.509 268, 130.908 268 C 130.308 268, 128.620 267.074, 127.158 265.941 C 124.372 263.783, 112.182 256, 111.589 256 C 111.400 256, 110.782 256.563, 110.216 257.250 M 224 274.168 C 222.075 274.712, 220.132 275.512, 219.682 275.946 C 219.232 276.381, 219.956 279.995, 221.292 283.978 L 223.721 291.219 220.167 292.704 C 218.212 293.520, 215.154 294.425, 213.372 294.715 L 210.131 295.240 207.924 287.870 C 206.710 283.817, 205.612 280.369, 205.483 280.208 C 205.355 280.048, 203.383 280.663, 201.102 281.576 C 197.081 283.185, 196.973 283.347, 197.591 286.868 C 198.207 290.378, 200.267 297.530, 203.966 309 C 204.942 312.025, 206.277 316.449, 206.935 318.832 C 207.881 322.264, 208.480 323.029, 209.815 322.512 C 210.742 322.153, 212.732 321.611, 214.238 321.307 C 217.313 320.687, 217.296 320.022, 213.948 310.246 C 211.869 304.174, 211.753 304.321, 220.694 301.677 L 225.888 300.141 227.383 304.320 C 228.205 306.619, 229.387 310.180, 230.011 312.233 L 231.144 315.967 234.822 314.431 C 236.845 313.587, 238.876 312.521, 239.335 312.063 C 239.794 311.605, 238.818 307.241, 237.166 302.365 C 235.513 297.489, 232.756 288.887, 231.038 283.250 C 229.320 277.613, 227.821 273.041, 227.707 273.090 C 227.593 273.140, 225.925 273.625, 224 274.168 M 134.267 274.703 C 130.589 275.414, 126 281.847, 126 286.294 C 126 292.222, 127.483 294.452, 134.675 299.334 C 139.122 302.352, 140.280 304.108, 139.376 306.462 C 137.555 311.209, 129.873 307.831, 129 301.898 C 128.566 298.951, 128.004 298.377, 124.758 297.576 C 122.700 297.067, 120.701 296.966, 120.315 297.351 C 119.930 297.736, 119.616 300.177, 119.618 302.776 C 119.622 312.666, 127.266 318.035, 140.114 317.175 C 143.701 316.935, 147.505 312.841, 148.956 307.658 C 149.965 304.055, 149.910 302.720, 148.628 299.651 C 146.955 295.648, 141.832 290.362, 138.250 288.941 C 136.987 288.441, 136 287.191, 136 286.092 C 136 281.247, 145.241 283.275, 145.815 288.246 C 146.059 290.359, 146.851 291.168, 149.315 291.823 C 153.046 292.814, 153.963 291.925, 153.985 287.297 C 154.010 282.081, 152.054 279.206, 146.649 276.512 C 141.842 274.117, 139.259 273.740, 134.267 274.703 M 156.986 282.750 C 156.979 284.262, 156.701 286.512, 156.370 287.750 C 155.809 289.842, 156.086 290, 160.324 290 C 162.831 290, 165.111 290.371, 165.392 290.825 C 165.907 291.659, 163.314 319.450, 162.508 321.740 C 162.267 322.422, 163.067 323.182, 164.285 323.429 C 169.643 324.517, 172.079 324.680, 172.511 323.982 C 172.766 323.570, 173.211 319.528, 173.500 315 C 173.789 310.472, 174.228 306.440, 174.475 306.041 C 174.722 305.641, 175.006 302.319, 175.107 298.657 L 175.290 292 180.044 292 L 184.799 292 185.157 287.500 C 185.353 285.025, 185.286 282.996, 185.007 282.990 C 184.728 282.985, 178.650 282.318, 171.500 281.510 C 164.350 280.701, 158.162 280.030, 157.750 280.020 C 157.338 280.009, 156.994 281.238, 156.986 282.750" stroke="none" fill="#1f76c2" fill-rule="evenodd"/></svg>